<svg height="472pt" viewBox="-56 0 472 472.34878" width="472pt" xmlns="http://www.w3.org/2000/svg"><path d="m8.175781 165.171875h30.949219v180.984375c-.050781 2.082031.730469 4.101562 2.175781 5.605469 1.445313 1.5 3.433594 2.363281 5.519531 2.394531l101.304688.941406v34.734375c-9 8.667969-15.527344 21.238281-15.527344 35.199219-.007812 12.84375 5.242188 25.128906 14.523438 34 1.984375 1.90625 4.800781 2.671875 7.476562 2.03125 2.675782-.644531 4.839844-2.605469 5.738282-5.207031l6.632812-19.449219 9.464844 3.214844-7.476563 21.984375c-.789062 2.320312-.472656 4.871093.859375 6.925781 1.332032 2.058594 3.53125 3.390625 5.96875 3.617188 1.398438.132812 2.859375.199218 4.339844.199218 26.160156-.011718 47.398438-21.152344 47.527344-47.308594 0-13.96875-6.527344-26.539062-15.527344-35.203124v-34.152344l97.902344.488281h.074218c2.085938.078125 4.117188-.679687 5.640626-2.105469 1.515624-1.417968 2.375-3.398437 2.382812-5.472656v-183.421875h33.949219c3.347656-.019531 6.332031-2.105469 7.496093-5.238281 1.167969-3.136719.269532-6.664063-2.25-8.863282l-171.726562-149.109374c-3.003906-2.609376-7.472656-2.617188-10.484375-.011719l-172.171875 149.097656c-2.523438 2.199219-3.425781 5.734375-2.261719 8.871094 1.164063 3.140625 4.152344 5.230469 7.5 5.253906zm158.308594 63.90625c.933594 1.902344 2.589844 3.355469 4.597656 4.039063l24.605469 8.371093c4.183594 1.421875 8.730469-.816406 10.152344-5l3.921875-11.527343c4.1875 12.191406.480469 25.699218-9.339844 34.046874-9.820313 8.347657-23.753906 9.824219-35.105469 3.726563-11.355468-6.097656-17.816406-18.527344-16.28125-31.324219s10.75-23.347656 23.226563-26.589844l-6.175781 18.152344c-.679688 2.007813-.539063 4.203125.398437 6.105469zm21.503906 226.269531 6.175781-18.144531c1.421876-4.183594-.816406-8.726563-5-10.148437l-24.605468-8.371094c-2.011719-.683594-4.210938-.542969-6.113282.394531-1.90625.9375-3.355468 2.597656-4.039062 4.605469l-3.921875 11.527344c-4.1875-12.191407-.480469-25.699219 9.339844-34.046876 9.824219-8.347656 23.753906-9.824218 35.109375-3.726562 11.351562 6.097656 17.8125 18.527344 16.277344 31.324219-1.535157 12.796875-10.75 23.347656-23.226563 26.589843zm-7.863281-77.621094c-5.441406.007813-10.84375.902344-16 2.640626v-100.5625c10.375 3.523437 21.625 3.523437 32 0v100.566406c-5.152344-1.742188-10.558594-2.636719-16-2.644532zm122-37.207031-90-.835937v-69.34375c9-8.667969 15.527344-21.238282 15.527344-35.199219.007812-12.84375-5.238282-25.128906-14.523438-34-1.980468-1.90625-4.800781-2.671875-7.476562-2.027344-2.671875.640625-4.835938 2.601563-5.738282 5.203125l-6.628906 19.449219-9.464844-3.21875 7.476563-21.980469c.789063-2.320312.46875-4.871094-.863281-6.929687-1.332032-2.054688-3.53125-3.386719-5.972656-3.613281-1.398438-.128907-2.859376-.199219-4.335938-.199219-26.160156.011719-47.394531 21.152343-47.527344 47.3125 0 13.964843 6.527344 26.535156 15.527344 35.199219v68.753906l-93-.863282v-173.054687h247zm-121.785156-321.859375 150.320312 130.511719h-301.027344zm0 0"/></svg>